<mxfile host="app.diagrams.net" modified="2023-10-13T06:38:50.157Z" agent="Mozilla/5.0 (Windows NT 10.0; Win64; x64) AppleWebKit/537.36 (KHTML, like Gecko) Chrome/117.0.0.0 Safari/537.36 Edg/117.0.2045.60" version="21.6.8" etag="VfeJAS5Kbb1oHqO6IDaQ" type="github">
  <diagram name="第 1 页" id="DNjnrZhaVsTOmlpnw5os">
    <mxGraphModel>
      <root>
        <mxCell id="0" />
        <mxCell id="1" parent="0" />
      </root>
    </mxGraphModel>
  </diagram>
</mxfile>
